# xmcd
#
# Track frame offsets:
#  150
#  13338
#  26029
#  45502
#  57568
#  69629
#  83062
#  105576
#  132437
#  144937
#  157755
#  172792
#  190779
#  209971
#
# Disc length: 3019 seconds
#
# Revision: 7
# Processed by: cddbd v1.5.2PL0 Copyright (c) Steve Scherf et al.
# Submitted via: Collectorz.com_Music_Collector 6.11
#
DISCID=c00bc90e
DTITLE=Various Artist - The World Of Blues (2CDs) [CD2)
DYEAR=1996
DGENRE=Blues
TTITLE0=Elmore James - Dust My Boom
TTITLE1=B.B. King - Please My Love
TTITLE2=Gary Browne - Still Got The Blues
TTITLE3=John Lee Hooker - Crawling King Snake
TTITLE4=Jimmy Reed - Honest I Do
TTITLE5=King Curtis - Trouble In Mind
TTITLE6=B.B. King - Everyday I Have The Blues
TTITLE7=Otis Rush - It's Hard For Me To Believe My Baby
TTITLE8=Howlin' Wolf - 'cause Of It All
TTITLE9=Muddy Waters - Fourty Days And Fourty Nights
TTITLE10=Sonny Terry - Ida Mae
TTITLE11=Big Joe Turner - Roll 'm Pete
TTITLE12=B.B. King - Sweet Sixteen
TTITLE13=Otis Spann - The Blues Never Die
EXTD=
EXTT0=
EXTT1=
EXTT2=
EXTT3=
EXTT4=
EXTT5=
EXTT6=
EXTT7=
EXTT8=
EXTT9=
EXTT10=
EXTT11=
EXTT12=
EXTT13=
PLAYORDER=
